<svg width="334" height="22" viewBox="0 0 334 22" fill="none" xmlns="http://www.w3.org/2000/svg">
<path d="M1.48433 17V5.576H9.37233V6.856H3.00433V10.488H8.94033V11.768H3.00433V15.72H9.42033V17H1.48433ZM18.2021 8.728L14.6021 18.104C13.9621 19.704 13.4181 20.312 12.2021 20.312C11.8821 20.312 11.5621 20.28 11.2581 20.168V18.92C11.5141 19 11.7861 19.112 12.0581 19.112C12.6181 19.112 12.9221 18.856 13.1781 18.36L13.7381 16.952L10.4581 8.728H11.9941L14.4101 15.496H14.4421L16.7621 8.728H18.2021ZM25.5661 14.376H26.9101C26.5421 16.216 25.2461 17.192 23.3741 17.192C20.7341 17.192 19.4861 15.352 19.4061 12.84C19.4061 10.344 21.0381 8.536 23.2941 8.536C26.2221 8.536 27.1181 11.272 27.0381 13.272H20.8461C20.7981 14.712 21.6141 15.992 23.4221 15.992C24.5581 15.992 25.3261 15.464 25.5661 14.376ZM20.8461 12.072H25.5981C25.5181 10.776 24.5741 9.736 23.2141 9.736C21.8061 9.736 20.9261 10.792 20.8461 12.072ZM42.173 8.92H40.733C40.557 7.272 39.485 6.584 37.901 6.584C36.605 6.584 35.341 7.048 35.341 8.536C35.341 11.352 42.653 9.368 42.653 13.864C42.653 16.296 40.269 17.272 38.189 17.272C35.629 17.272 33.469 16.008 33.469 13.24H34.909C34.909 15.16 36.509 15.992 38.237 15.992C39.613 15.992 41.133 15.56 41.133 13.912C41.133 10.776 33.821 12.84 33.821 8.648C33.821 6.344 35.869 5.304 37.965 5.304C40.301 5.304 42.093 6.408 42.173 8.92ZM46.216 5.576V7.24H44.856V5.576H46.216ZM44.856 17V8.728H46.216V17H44.856ZM55.9588 8.728V16.296C55.9588 19 54.7428 20.36 52.1188 20.36C50.5668 20.36 48.7748 19.72 48.6948 17.928H50.0548C50.1028 18.904 51.3188 19.272 52.1988 19.272C53.9748 19.272 54.6788 17.992 54.6788 16.136V15.592H54.6468C54.1828 16.6 53.1268 17.096 52.0708 17.096C49.6068 17.096 48.3748 15.16 48.3748 12.904C48.3748 10.952 49.3188 8.536 52.1988 8.536C53.2388 8.536 54.1668 9 54.6628 9.912H54.6788V8.728H55.9588ZM52.1508 15.896C53.9428 15.896 54.6148 14.248 54.6148 12.696C54.6148 11.24 53.9748 9.736 52.2628 9.736C50.5188 9.736 49.8148 11.16 49.8148 12.744C49.8148 14.232 50.3588 15.896 52.1508 15.896ZM58.5103 17V8.728H59.7903V10.04H59.8223C60.3983 9.016 61.3103 8.536 62.5103 8.536C64.6863 8.536 65.3583 9.784 65.3583 11.56V17H63.9983V11.4C63.9983 10.376 63.3583 9.736 62.3183 9.736C60.6703 9.736 59.8703 10.84 59.8703 12.328V17H58.5103ZM67.373 14.392H68.733C68.781 15.608 69.853 15.992 70.957 15.992C71.805 15.992 72.957 15.8 72.957 14.76C72.957 12.632 67.549 14.072 67.549 10.888C67.549 9.224 69.181 8.536 70.637 8.536C72.493 8.536 73.901 9.112 74.029 11.128H72.669C72.589 10.072 71.629 9.736 70.749 9.736C69.933 9.736 68.989 9.96 68.989 10.792C68.989 11.752 70.429 11.944 71.693 12.232C73.053 12.536 74.397 13 74.397 14.584C74.397 16.568 72.557 17.192 70.877 17.192C69.021 17.192 67.453 16.44 67.373 14.392Z" fill="#4D4D4D"/>
<path d="M258.242 1V21" stroke="#3CBA1D" stroke-width="2" stroke-linecap="round"/>
<path d="M268.236 11L248.236 11" stroke="#3CBA1D" stroke-width="2" stroke-linecap="round"/>
<path d="M290.242 1V21" stroke="#D0D0D0" stroke-width="2" stroke-linecap="round"/>
<path d="M300.236 11L280.236 11" stroke="#D0D0D0" stroke-width="2" stroke-linecap="round"/>
<path d="M322.242 1V21" stroke="#D0D0D0" stroke-width="2" stroke-linecap="round"/>
<path d="M332.236 11L312.236 11" stroke="#D0D0D0" stroke-width="2" stroke-linecap="round"/>
</svg>
