<svg width="334" height="23" viewBox="0 0 334 23" fill="none" xmlns="http://www.w3.org/2000/svg">
<path d="M1.48433 17.6104V6.18635H9.37233V7.46635H3.00433V11.0984H8.94033V12.3784H3.00433V16.3304H9.42033V17.6104H1.48433ZM18.2021 9.33835L14.6021 18.7144C13.9621 20.3144 13.4181 20.9224 12.2021 20.9224C11.8821 20.9224 11.5621 20.8904 11.2581 20.7784V19.5304C11.5141 19.6104 11.7861 19.7224 12.0581 19.7224C12.6181 19.7224 12.9221 19.4664 13.1781 18.9704L13.7381 17.5624L10.4581 9.33835H11.9941L14.4101 16.1064H14.4421L16.7621 9.33835H18.2021ZM25.5661 14.9864H26.9101C26.5421 16.8264 25.2461 17.8024 23.3741 17.8024C20.7341 17.8024 19.4861 15.9624 19.4061 13.4504C19.4061 10.9544 21.0381 9.14635 23.2941 9.14635C26.2221 9.14635 27.1181 11.8824 27.0381 13.8824H20.8461C20.7981 15.3224 21.6141 16.6024 23.4221 16.6024C24.5581 16.6024 25.3261 16.0744 25.5661 14.9864ZM20.8461 12.6824H25.5981C25.5181 11.3864 24.5741 10.3464 23.2141 10.3464C21.8061 10.3464 20.9261 11.4024 20.8461 12.6824ZM42.173 9.53035H40.733C40.557 7.88235 39.485 7.19435 37.901 7.19435C36.605 7.19435 35.341 7.65835 35.341 9.14635C35.341 11.9624 42.653 9.97835 42.653 14.4744C42.653 16.9064 40.269 17.8824 38.189 17.8824C35.629 17.8824 33.469 16.6184 33.469 13.8504H34.909C34.909 15.7704 36.509 16.6024 38.237 16.6024C39.613 16.6024 41.133 16.1704 41.133 14.5224C41.133 11.3864 33.821 13.4504 33.821 9.25835C33.821 6.95435 35.869 5.91435 37.965 5.91435C40.301 5.91435 42.093 7.01835 42.173 9.53035ZM46.216 6.18635V7.85035H44.856V6.18635H46.216ZM44.856 17.6104V9.33835H46.216V17.6104H44.856ZM55.9588 9.33835V16.9064C55.9588 19.6104 54.7428 20.9704 52.1188 20.9704C50.5668 20.9704 48.7748 20.3304 48.6948 18.5384H50.0548C50.1028 19.5144 51.3188 19.8824 52.1988 19.8824C53.9748 19.8824 54.6788 18.6024 54.6788 16.7464V16.2024H54.6468C54.1828 17.2104 53.1268 17.7064 52.0708 17.7064C49.6068 17.7064 48.3748 15.7704 48.3748 13.5144C48.3748 11.5624 49.3188 9.14635 52.1988 9.14635C53.2388 9.14635 54.1668 9.61035 54.6628 10.5224H54.6788V9.33835H55.9588ZM52.1508 16.5064C53.9428 16.5064 54.6148 14.8584 54.6148 13.3064C54.6148 11.8504 53.9748 10.3464 52.2628 10.3464C50.5188 10.3464 49.8148 11.7704 49.8148 13.3544C49.8148 14.8424 50.3588 16.5064 52.1508 16.5064ZM58.5103 17.6104V9.33835H59.7903V10.6504H59.8223C60.3983 9.62635 61.3103 9.14635 62.5103 9.14635C64.6863 9.14635 65.3583 10.3944 65.3583 12.1704V17.6104H63.9983V12.0104C63.9983 10.9864 63.3583 10.3464 62.3183 10.3464C60.6703 10.3464 59.8703 11.4504 59.8703 12.9384V17.6104H58.5103ZM67.373 15.0024H68.733C68.781 16.2184 69.853 16.6024 70.957 16.6024C71.805 16.6024 72.957 16.4104 72.957 15.3704C72.957 13.2424 67.549 14.6824 67.549 11.4984C67.549 9.83435 69.181 9.14635 70.637 9.14635C72.493 9.14635 73.901 9.72235 74.029 11.7384H72.669C72.589 10.6824 71.629 10.3464 70.749 10.3464C69.933 10.3464 68.989 10.5704 68.989 11.4024C68.989 12.3624 70.429 12.5544 71.693 12.8424C73.053 13.1464 74.397 13.6104 74.397 15.1944C74.397 17.1784 72.557 17.8024 70.877 17.8024C69.021 17.8024 67.453 17.0504 67.373 15.0024Z" fill="#4D4D4D"/>
<path d="M258.242 1.61035V21.6104" stroke="#E6954C" stroke-width="2" stroke-linecap="round"/>
<path d="M268.236 11.6104L248.236 11.6104" stroke="#E6954C" stroke-width="2" stroke-linecap="round"/>
<path d="M290.242 1.61035V21.6104" stroke="#E6954C" stroke-width="2" stroke-linecap="round"/>
<path d="M300.236 11.6104L280.236 11.6104" stroke="#E6954C" stroke-width="2" stroke-linecap="round"/>
<path d="M322.242 1.61035V21.6104" stroke="#D0D0D0" stroke-width="2" stroke-linecap="round"/>
<path d="M332.236 11.6104L312.236 11.6104" stroke="#D0D0D0" stroke-width="2" stroke-linecap="round"/>
</svg>
