<svg width="334" height="23" viewBox="0 0 334 23" fill="none" xmlns="http://www.w3.org/2000/svg">
<path d="M1.48433 17.2202V5.79621H9.37233V7.07621H3.00433V10.7082H8.94033V11.9882H3.00433V15.9402H9.42033V17.2202H1.48433ZM18.2021 8.94821L14.6021 18.3242C13.9621 19.9242 13.4181 20.5322 12.2021 20.5322C11.8821 20.5322 11.5621 20.5002 11.2581 20.3882V19.1402C11.5141 19.2202 11.7861 19.3322 12.0581 19.3322C12.6181 19.3322 12.9221 19.0762 13.1781 18.5802L13.7381 17.1722L10.4581 8.94821H11.9941L14.4101 15.7162H14.4421L16.7621 8.94821H18.2021ZM25.5661 14.5962H26.9101C26.5421 16.4362 25.2461 17.4122 23.3741 17.4122C20.7341 17.4122 19.4861 15.5722 19.4061 13.0602C19.4061 10.5642 21.0381 8.75621 23.2941 8.75621C26.2221 8.75621 27.1181 11.4922 27.0381 13.4922H20.8461C20.7981 14.9322 21.6141 16.2122 23.4221 16.2122C24.5581 16.2122 25.3261 15.6842 25.5661 14.5962ZM20.8461 12.2922H25.5981C25.5181 10.9962 24.5741 9.95621 23.2141 9.95621C21.8061 9.95621 20.9261 11.0122 20.8461 12.2922ZM42.173 9.14021H40.733C40.557 7.49221 39.485 6.80421 37.901 6.80421C36.605 6.80421 35.341 7.26821 35.341 8.75621C35.341 11.5722 42.653 9.58821 42.653 14.0842C42.653 16.5162 40.269 17.4922 38.189 17.4922C35.629 17.4922 33.469 16.2282 33.469 13.4602H34.909C34.909 15.3802 36.509 16.2122 38.237 16.2122C39.613 16.2122 41.133 15.7802 41.133 14.1322C41.133 10.9962 33.821 13.0602 33.821 8.86821C33.821 6.56421 35.869 5.52421 37.965 5.52421C40.301 5.52421 42.093 6.62821 42.173 9.14021ZM46.216 5.79621V7.46021H44.856V5.79621H46.216ZM44.856 17.2202V8.94821H46.216V17.2202H44.856ZM55.9588 8.94821V16.5162C55.9588 19.2202 54.7428 20.5802 52.1188 20.5802C50.5668 20.5802 48.7748 19.9402 48.6948 18.1482H50.0548C50.1028 19.1242 51.3188 19.4922 52.1988 19.4922C53.9748 19.4922 54.6788 18.2122 54.6788 16.3562V15.8122H54.6468C54.1828 16.8202 53.1268 17.3162 52.0708 17.3162C49.6068 17.3162 48.3748 15.3802 48.3748 13.1242C48.3748 11.1722 49.3188 8.75621 52.1988 8.75621C53.2388 8.75621 54.1668 9.22021 54.6628 10.1322H54.6788V8.94821H55.9588ZM52.1508 16.1162C53.9428 16.1162 54.6148 14.4682 54.6148 12.9162C54.6148 11.4602 53.9748 9.95621 52.2628 9.95621C50.5188 9.95621 49.8148 11.3802 49.8148 12.9642C49.8148 14.4522 50.3588 16.1162 52.1508 16.1162ZM58.5103 17.2202V8.94821H59.7903V10.2602H59.8223C60.3983 9.23621 61.3103 8.75621 62.5103 8.75621C64.6863 8.75621 65.3583 10.0042 65.3583 11.7802V17.2202H63.9983V11.6202C63.9983 10.5962 63.3583 9.95621 62.3183 9.95621C60.6703 9.95621 59.8703 11.0602 59.8703 12.5482V17.2202H58.5103ZM67.373 14.6122H68.733C68.781 15.8282 69.853 16.2122 70.957 16.2122C71.805 16.2122 72.957 16.0202 72.957 14.9802C72.957 12.8522 67.549 14.2922 67.549 11.1082C67.549 9.44421 69.181 8.75621 70.637 8.75621C72.493 8.75621 73.901 9.33221 74.029 11.3482H72.669C72.589 10.2922 71.629 9.95621 70.749 9.95621C69.933 9.95621 68.989 10.1802 68.989 11.0122C68.989 11.9722 70.429 12.1642 71.693 12.4522C73.053 12.7562 74.397 13.2202 74.397 14.8042C74.397 16.7882 72.557 17.4122 70.877 17.4122C69.021 17.4122 67.453 16.6602 67.373 14.6122Z" fill="#4D4D4D"/>
<path d="M258.242 1.22021V21.2202" stroke="#E14A4A" stroke-width="2" stroke-linecap="round"/>
<path d="M268.236 11.2202L248.236 11.2202" stroke="#E14A4A" stroke-width="2" stroke-linecap="round"/>
<path d="M290.242 1.22021V21.2202" stroke="#E14A4A" stroke-width="2" stroke-linecap="round"/>
<path d="M300.236 11.2202L280.236 11.2202" stroke="#E14A4A" stroke-width="2" stroke-linecap="round"/>
<path d="M322.242 1.22021V21.2202" stroke="#E14A4A" stroke-width="2" stroke-linecap="round"/>
<path d="M332.236 11.2202L312.236 11.2202" stroke="#E14A4A" stroke-width="2" stroke-linecap="round"/>
</svg>
