<svg width="25" height="24" viewBox="0 0 25 24" fill="none" xmlns="http://www.w3.org/2000/svg">
<path d="M16.9699 5.23572C17.3221 5.9634 18.0502 6.46905 18.9126 6.47864C20.1373 6.49225 21.1187 5.48664 21.1311 4.26198C21.1436 3.02479 20.1498 1.98639 18.9126 2.00013C17.6887 2.01373 16.7306 3.03805 16.743 4.26198C16.7465 4.61079 16.8275 4.94141 16.9699 5.23572ZM16.9699 5.23572L7.57146 10.9906M7.57146 10.9906C7.20647 10.2441 6.44445 9.72942 5.55905 9.7343C4.32877 9.74108 3.35033 10.7416 3.34137 11.9719C3.33234 13.2113 4.31963 14.2354 5.55905 14.2423C6.44324 14.2471 7.20613 13.7294 7.57146 12.9831M7.57146 10.9906C7.71641 11.2871 7.79874 11.6202 7.80131 11.9719C7.80395 12.3338 7.72101 12.6776 7.57146 12.9831M7.57146 12.9831L17.0326 18.6905M17.0326 18.6905C16.8475 19.0157 16.7423 19.3927 16.743 19.794C16.745 21.0023 17.7044 21.9866 18.9126 22C20.1344 22.0136 21.1291 21.0158 21.1311 19.794C21.1331 18.5702 20.1364 17.5671 18.9126 17.5807C18.1036 17.5897 17.4058 18.0348 17.0326 18.6905Z" stroke="#1D1D1D" stroke-linecap="round" stroke-linejoin="round"/>
</svg>
